<svg id="Layer_2" data-name="Layer 2" xmlns="http://www.w3.org/2000/svg" viewBox="0 0 427.74 124.48"><defs><style>.cls-1{fill:#eee;stroke:#1d1d1b;}.cls-1,.cls-2{stroke-miterlimit:10;}.cls-2{fill:#fff;stroke:#231f20;}.cls-3{fill:#bdbdc5;}.cls-4{fill:#f8f8f8;}.cls-5{fill:#231f20;}</style></defs><title>Seclab Logo</title><polygon class="cls-1" points="43.13 49.85 21.82 37.55 21.85 12.91 43.17 0.58 64.47 12.88 64.45 37.51 43.13 49.85"/><polygon class="cls-1" points="85.78 49.85 64.47 37.55 64.49 12.91 85.82 0.58 107.12 12.88 107.1 37.51 85.78 49.85"/><polygon class="cls-1" points="128.42 49.85 107.12 37.55 107.14 12.91 128.47 0.58 149.77 12.88 149.75 37.51 128.42 49.85"/><polygon class="cls-1" points="171.07 49.85 149.77 37.55 149.79 12.91 171.12 0.58 192.42 12.88 192.4 37.51 171.07 49.85"/><polygon class="cls-1" points="213.72 49.85 192.42 37.55 192.44 12.91 213.76 0.58 235.07 12.88 235.04 37.51 213.72 49.85"/><polygon class="cls-1" points="256.37 49.85 235.07 37.55 235.09 12.91 256.41 0.58 277.71 12.88 277.69 37.51 256.37 49.85"/><polygon class="cls-1" points="21.8 86.85 0.5 74.55 0.52 49.92 21.85 37.58 43.15 49.88 43.13 74.52 21.8 86.85"/><polygon class="cls-1" points="405.9 86.85 384.59 74.55 384.62 49.92 405.94 37.58 427.24 49.88 427.22 74.52 405.9 86.85"/><polygon class="cls-1" points="64.45 86.85 43.15 74.55 43.17 49.92 64.49 37.58 85.8 49.88 85.78 74.52 64.45 86.85"/><polygon class="cls-2" points="107.1 86.85 85.8 74.55 85.82 49.92 107.14 37.58 128.45 49.88 128.42 74.52 107.1 86.85"/><polygon class="cls-2" points="149.75 86.85 128.45 74.55 128.47 49.92 149.79 37.58 171.09 49.88 171.07 74.52 149.75 86.85"/><polygon class="cls-2" points="192.4 86.85 171.09 74.55 171.12 49.92 192.44 37.58 213.74 49.88 213.72 74.52 192.4 86.85"/><polygon class="cls-2" points="235.04 86.85 213.74 74.55 213.76 49.92 235.09 37.58 256.39 49.88 256.37 74.52 235.04 86.85"/><polygon class="cls-2" points="277.69 86.63 256.39 74.33 256.41 49.69 277.74 37.36 299.04 49.66 299.02 74.29 277.69 86.63"/><polygon class="cls-2" points="320.34 86.85 299.04 74.55 299.06 49.92 320.38 37.58 341.69 49.88 341.67 74.52 320.34 86.85"/><polygon class="cls-2" points="362.99 86.63 341.69 74.33 341.71 49.69 363.03 37.36 384.34 49.66 384.31 74.29 362.99 86.63"/><polygon class="cls-1" points="43.13 123.9 21.82 111.6 21.85 86.97 43.17 74.63 64.47 86.93 64.45 111.56 43.13 123.9"/><polygon class="cls-1" points="85.78 123.9 64.47 111.6 64.49 86.97 85.82 74.63 107.12 86.93 107.1 111.56 85.78 123.9"/><polygon class="cls-1" points="256.37 123.68 235.07 111.38 235.09 86.74 256.41 74.41 277.71 86.71 277.69 111.34 256.37 123.68"/><polygon class="cls-1" points="128.41 123.9 107.1 111.6 107.13 86.97 128.45 74.63 149.75 86.93 149.73 111.56 128.41 123.9"/><polygon class="cls-1" points="171.06 123.9 149.75 111.6 149.77 86.97 171.1 74.63 192.4 86.93 192.38 111.56 171.06 123.9"/><polygon class="cls-1" points="299.27 123.68 277.97 111.38 277.99 86.74 299.32 74.41 320.62 86.71 320.6 111.34 299.27 123.68"/><polygon class="cls-1" points="213.7 123.9 192.4 111.6 192.42 86.97 213.75 74.63 235.05 86.93 235.03 111.56 213.7 123.9"/><polygon class="cls-1" points="341.67 123.68 320.36 111.38 320.38 86.74 341.71 74.41 363.01 86.71 362.99 111.34 341.67 123.68"/><polygon class="cls-3" points="213.7 123.49 213.7 99.42 192.94 87.28 192.92 111.32 213.7 123.49"/><polygon class="cls-4" points="213.7 123.49 213.72 99.49 234.5 87.36 234.52 111.07 213.7 123.49"/><polygon class="cls-1" points="384.31 123.9 363.01 111.6 363.03 86.97 384.36 74.63 405.66 86.93 405.64 111.56 384.31 123.9"/><polygon class="cls-3" points="384.31 123.49 384.31 99.42 363.56 87.28 363.53 111.32 384.31 123.49"/><polygon class="cls-4" points="384.31 123.49 384.34 99.49 405.11 87.36 405.13 111.07 384.31 123.49"/><polygon class="cls-3" points="171.08 49.44 171.08 25.37 150.32 13.23 150.3 37.27 171.08 49.44"/><polygon class="cls-4" points="171.08 49.44 171.1 25.44 191.87 13.31 191.89 37.02 171.08 49.44"/><polygon class="cls-1" points="299.27 49.85 277.97 37.55 277.99 12.91 299.32 0.58 320.62 12.88 320.6 37.51 299.27 49.85"/><polygon class="cls-1" points="341.92 49.85 320.62 37.55 320.64 12.91 341.97 0.58 363.27 12.88 363.25 37.51 341.92 49.85"/><polygon class="cls-1" points="384.57 49.85 363.27 37.55 363.29 12.91 384.62 0.58 405.92 12.88 405.9 37.51 384.57 49.85"/><polygon class="cls-3" points="299.28 49.44 299.28 25.37 278.52 13.23 278.5 37.27 299.28 49.44"/><polygon class="cls-4" points="299.28 49.44 299.3 25.44 320.07 13.31 320.09 37.02 299.28 49.44"/><polygon class="cls-3" points="128.41 123.49 128.41 99.42 107.65 87.28 107.63 111.32 128.41 123.49"/><polygon class="cls-4" points="128.41 123.49 128.43 99.49 149.2 87.36 149.22 111.07 128.41 123.49"/><polygon class="cls-3" points="43.13 123.43 43.13 99.36 22.37 87.23 22.35 111.27 43.13 123.43"/><polygon class="cls-4" points="43.13 123.43 43.15 99.43 63.92 87.31 63.95 111.02 43.13 123.43"/><polygon class="cls-3" points="64.45 86.48 64.45 62.41 43.7 50.27 43.67 74.31 64.45 86.48"/><polygon class="cls-4" points="64.45 86.48 64.48 62.47 85.25 50.35 85.27 74.06 64.45 86.48"/><path class="cls-5" d="M1703.45,292.15l-18-10.5L1667.32,292v20.75l18.13,10,18-10v-7.12l-4.62-3.12,4.63-2.76Zm-18.06,23.69-11.44-6.5v-3.5h17.88l5.38,3.25Zm6.44-16.69h-17.87v-3.5l11.44-6.5,11.81,6.75Z" transform="translate(-1322.38 -240.22)"/><polygon class="cls-5" points="192.4 75.81 180.96 69.31 180.96 69.06 180.96 55.31 180.96 55.06 192.4 48.56 204.21 55.31 210.46 51.63 192.46 41.63 174.33 51.63 174.33 52 174.33 72.38 174.33 72.75 192.46 82.75 210.46 72.75 204.21 69.06 192.4 75.81"/><polygon class="cls-5" points="101.75 52.2 107.11 49.15 118.92 55.9 125.17 52.15 107.17 41.65 89.05 52.03 118.92 69.09 107.11 75.84 95.67 69.34 89.05 72.78 107.17 82.78 125.17 72.78 125.17 65.65 101.75 52.2"/><path class="cls-5" d="M1642.81,281.65,1624.68,292v20.75l6.63-3.44V302.9h23.24v6.19l-11.81,6.75v6.9l.06,0,18-10V292.15ZM1631.31,296l11.5-6.5,11.75,6.46Z" transform="translate(-1322.38 -240.22)"/><path class="cls-5" d="M1472.21,281.85l-18.12,10V313l18.13,10,18-10-6.25-3.69L1472.15,316l-11.44-6.5v-4.09h29.5v-13.6ZM1484,299.11h-23.25v-3.83l11.44-6.5,11.81,6.75Z" transform="translate(-1322.38 -240.22)"/><polygon class="cls-5" points="289.15 68.91 289.15 69.16 277.71 75.66 266.28 69.16 266.28 68.91 266.28 48.06 259.65 51.85 259.65 72.6 277.71 82.57 295.78 72.6 289.15 68.91"/><polygon class="cls-3" points="253.13 65.22 253.13 51.62 235.13 41.62 217 51.62 217 52 217 72.37 217 72.75 235.13 82.75 253.13 72.75 246.88 69.06 235.07 75.81 223.63 69.31 223.63 69.06 223.63 67.53 223.63 65.22 223.63 58.89 223.63 56.36 223.63 55.31 223.63 55.06 235.07 48.56 246.88 55.31 246.88 58.89 240.46 58.89 240.46 65.22 253.13 65.22"/><path class="cls-3" d="M1564.95,306.94l0-9.14-7.81-4.29-7.82,4.36V298l0,8.81V307l7.86,4.29,7.77-4.36Zm-7.79-.29-3.57-2v-.08l0-4.28v-.08l3.55-2,3.69,2.08,0,4.28h0Z" transform="translate(-1322.38 -240.22)"/></svg>